<?xml version="1.0" encoding="iso-8859-1"?>
<!-- Generator: Adobe Illustrator 19.0.0, SVG Export Plug-In . SVG Version: 6.00 Build 0)  -->
<svg version="1.1" id="Layer_1" xmlns="http://www.w3.org/2000/svg" xmlns:xlink="http://www.w3.org/1999/xlink" x="0px" y="0px"
	 viewBox="0 0 512 512" style="enable-background:new 0 0 512 512;" xml:space="preserve">
<g>
	<g>
		<path d="M503.467,52.425H8.533C3.821,52.425,0,56.246,0,60.958v390.084c0,4.713,3.821,8.533,8.533,8.533h494.933
			c4.713,0,8.533-3.821,8.533-8.533V60.958C512,56.246,508.179,52.425,503.467,52.425z M494.933,442.51H17.067V69.491h477.867
			V442.51z"/>
	</g>
</g>
<g>
	<g>
		<path d="M90.169,128.656c-26.664,0-48.356,21.692-48.356,48.356s21.692,48.356,48.356,48.356s48.356-21.692,48.356-48.356
			S116.833,128.656,90.169,128.656z M90.169,145.723c1.991,0,3.936,0.195,5.824,0.552l-11.099,22.204H60.072
			C63.797,155.362,75.875,145.723,90.169,145.723z M90.169,208.3c-14.294,0-26.371-9.639-30.096-22.756h28.435l26.342,10.664
			C109.119,203.559,100.189,208.3,90.169,208.3z M121.271,180.398l-19.341-7.83l9.323-18.652
			c6.266,5.725,10.205,13.959,10.205,23.096C121.458,178.156,121.392,179.285,121.271,180.398z"/>
	</g>
</g>
<g>
	<g>
		<path d="M298.951,146.67H158.436c-4.713,0-8.533,3.821-8.533,8.533c0,4.713,3.821,8.533,8.533,8.533h140.516
			c4.713,0,8.533-3.821,8.533-8.533C307.484,150.491,303.664,146.67,298.951,146.67z"/>
	</g>
</g>
<g>
	<g>
		<path d="M262.378,179.163H158.436c-4.713,0-8.533,3.821-8.533,8.533c0,4.713,3.821,8.533,8.533,8.533h103.943
			c4.713,0,8.533-3.821,8.533-8.533C270.912,182.984,267.091,179.163,262.378,179.163z"/>
	</g>
</g>
<g>
	<g>
		<path d="M467.058,326.935H263.396c-4.713,0-8.533,3.821-8.533,8.533c0,4.713,3.821,8.533,8.533,8.533h203.662
			c4.713,0,8.533-3.821,8.533-8.533C475.591,330.756,471.77,326.935,467.058,326.935z"/>
	</g>
</g>
<g>
	<g>
		<path d="M467.058,358.793H312.32c-4.713,0-8.533,3.821-8.533,8.533c0,4.713,3.821,8.533,8.533,8.533h154.738
			c4.713,0,8.533-3.821,8.533-8.533C475.591,362.614,471.77,358.793,467.058,358.793z"/>
	</g>
</g>
<g>
	<g>
		<path d="M467.058,390.651H226.421c-4.713,0-8.533,3.821-8.533,8.533s3.821,8.533,8.533,8.533h240.637
			c4.713,0,8.533-3.82,8.533-8.533C475.591,394.472,471.77,390.651,467.058,390.651z"/>
	</g>
</g>
<g>
	<g>
		<path d="M266.93,101.296l2.012-2.012c3.333-3.333,3.333-8.736,0-12.067c-3.333-3.333-8.736-3.333-12.067,0l-2.012,2.01
			l-2.012-2.012c-3.333-3.333-8.736-3.333-12.067,0c-3.333,3.333-3.333,8.736,0,12.067l2.012,2.012l-2.012,2.012
			c-3.333,3.333-3.333,8.736,0,12.068c1.666,1.666,3.85,2.5,6.034,2.5c2.183,0,4.368-0.833,6.034-2.5l2.012-2.012l2.012,2.012
			c1.666,1.666,3.85,2.5,6.034,2.5c2.183,0,4.368-0.833,6.034-2.5c3.333-3.333,3.333-8.736,0-12.067L266.93,101.296z"/>
	</g>
</g>
<g>
	<g>
		<path d="M339.058,92.761h-47.787c-4.713,0-8.533,3.821-8.533,8.533c0,4.713,3.821,8.533,8.533,8.533h47.787
			c4.713,0,8.533-3.821,8.533-8.533C347.591,96.582,343.77,92.761,339.058,92.761z"/>
	</g>
</g>
<g>
	<g>
		<path d="M220.729,92.761h-47.787c-4.713,0-8.533,3.821-8.533,8.533c0,4.713,3.821,8.533,8.533,8.533h47.787
			c4.713,0,8.533-3.821,8.533-8.533C229.262,96.582,225.442,92.761,220.729,92.761z"/>
	</g>
</g>
<g>
	<g>
		<path d="M458.125,162.892c-13.43-13.432-31.289-20.828-50.283-20.828c-18.994,0-36.853,7.397-50.283,20.828
			c-27.725,27.727-27.725,72.841,0,100.566c13.431,13.431,31.289,20.828,50.283,20.828c18.994,0,36.853-7.397,50.283-20.828
			C485.852,235.731,485.852,190.617,458.125,162.892z M354.55,221.951c-2.709-16.597,2.306-34.22,15.078-46.991
			c2.922-2.921,6.126-5.452,9.539-7.599l17.217,40.64L354.55,221.951z M446.058,251.39c-10.208,10.208-23.78,15.83-38.215,15.83
			c-14.436,0-28.008-5.622-38.216-15.83c-3.997-3.997-7.232-8.471-9.712-13.238l50.627-16.882c2.257-0.753,4.098-2.414,5.078-4.583
			c0.98-2.17,1.008-4.649,0.08-6.84l-20.824-49.153c4.193-1.029,8.538-1.562,12.966-1.562c14.436-0.001,28.008,5.621,38.216,15.829
			C467.129,196.033,467.129,230.319,446.058,251.39z"/>
	</g>
</g>
<g>
	<g>
		<path d="M76.234,354.421h-30.72c-4.713,0-8.533,3.821-8.533,8.533v36.231c0,4.713,3.821,8.533,8.533,8.533h30.72
			c4.713,0,8.533-3.821,8.533-8.533v-36.231C84.768,358.241,80.948,354.421,76.234,354.421z M67.701,390.651H54.048v-19.165h13.653
			V390.651z"/>
	</g>
</g>
<g>
	<g>
		<path d="M132.601,332.457h-30.72c-4.713,0-8.533,3.821-8.533,8.533v58.194c0,4.713,3.821,8.533,8.533,8.533h30.72
			c4.713,0,8.533-3.821,8.533-8.533V340.99C141.135,336.278,137.314,332.457,132.601,332.457z M124.068,390.651h-13.653v-41.127
			h13.653V390.651z"/>
	</g>
</g>
<g>
	<g>
		<path d="M188.968,305.749h-30.72c-4.713,0-8.533,3.821-8.533,8.533v84.902c0,4.714,3.821,8.533,8.533,8.533h30.72
			c4.713,0,8.533-3.821,8.533-8.533v-84.902C197.501,309.569,193.68,305.749,188.968,305.749z M180.435,390.651h-13.653v-67.835
			h13.653V390.651z"/>
	</g>
</g>
<g>
	<g>
		<path d="M312.892,254.118h-122.88c-4.713,0-8.533,3.821-8.533,8.533c0,4.713,3.821,8.533,8.533,8.533h122.88
			c4.713,0,8.533-3.821,8.533-8.533C321.426,257.938,317.606,254.118,312.892,254.118z"/>
	</g>
</g>
<g>
	<g>
		<circle cx="473.884" cy="87.325" r="8.533"/>
	</g>
</g>
<g>
	<g>
		<circle cx="473.884" cy="424.505" r="8.533"/>
	</g>
</g>
<g>
	<g>
		<circle cx="38.119" cy="424.505" r="8.533"/>
	</g>
</g>
<g>
	<g>
		<circle cx="38.119" cy="87.325" r="8.533"/>
	</g>
</g>
<g>
</g>
<g>
</g>
<g>
</g>
<g>
</g>
<g>
</g>
<g>
</g>
<g>
</g>
<g>
</g>
<g>
</g>
<g>
</g>
<g>
</g>
<g>
</g>
<g>
</g>
<g>
</g>
<g>
</g>
</svg>
