<?xml version="1.0" encoding="iso-8859-1"?>
<!-- Generator: Adobe Illustrator 19.0.0, SVG Export Plug-In . SVG Version: 6.00 Build 0)  -->
<svg version="1.1" id="Capa_1" xmlns="http://www.w3.org/2000/svg" xmlns:xlink="http://www.w3.org/1999/xlink" x="0px" y="0px"
	 viewBox="0 0 512.992 512.992" style="enable-background:new 0 0 512.992 512.992;" xml:space="preserve">
<g>
	<g>
		<path d="M448.013,320.986v52.16c-1.525,6.368-11.829,43.84-42.667,43.84c-5.891,0-10.667,4.776-10.667,10.667v64H192.013v-74.667
			c0-33.749-20.928-42.667-32-42.667h-64c-0.866,0.056-1.735,0.056-2.602,0c-11.064-0.719-19.45-10.27-18.732-21.333v-39.765
			c-0.002-3.051-1.31-5.956-3.595-7.979c-10.695-9.864-24.537-15.623-39.072-16.256c-0.047,0.006-0.095,0.011-0.142,0.016
			c-5.143,0.545-9.755-3.182-10.301-8.326l51.776-93.867c0.873-1.577,1.331-3.35,1.333-5.152v-20.672
			c0.092-49.719,26.711-95.609,69.824-120.373l-10.667-18.507c-49.708,28.594-80.39,81.534-80.488,138.881v17.931l-52,94.251
			c-0.873,1.577-1.331,3.35-1.333,5.152c-0.018,0.606-0.018,1.213,0,1.819c0.502,17.171,14.829,30.684,32,30.181
			c7.758,0.431,15.2,3.218,21.333,7.989v34.677c-0.024,0.808-0.024,1.617,0,2.425c0.67,22.895,19.772,40.911,42.667,40.242h63.691
			c1.835,0.117,10.976,1.696,10.976,21.333v85.333c0,5.891,4.776,10.667,10.667,10.667h224c5.891,0,10.667-4.776,10.667-10.667
			V437.38c33.333-6.304,49.237-41.483,53.12-60.928c0.148-0.701,0.22-1.417,0.213-2.133v-53.333H448.013z"/>
	</g>
</g>
<g>
	<g>
		<path d="M202.68,342.319L202.68,342.319L202.68,342.319z"/>
	</g>
</g>
<g>
	<g>
		<path d="M352.014,0.007c-88.636,0.27-160.271,72.343-160.001,160.979v170.667c-0.001,4.314,2.596,8.204,6.581,9.856
			c1.294,0.54,2.683,0.815,4.085,0.811c2.829-0.001,5.541-1.125,7.541-3.125l48.469-48.48c27.456,19.78,60.462,30.376,94.302,30.273
			c88.636-0.27,160.271-72.343,160.001-160.979S440.65-0.263,352.014,0.007z M459.503,248.476
			c-48.367,59.317-135.661,68.194-194.978,19.827c-4.241-3.467-10.419-3.159-14.293,0.715l-36.885,36.885V160.986
			c0.088-76.547,62.12-138.578,138.667-138.667c31.941-0.02,62.908,10.994,87.663,31.179
			C498.993,101.864,507.87,189.159,459.503,248.476z"/>
	</g>
</g>
<g>
	<g>
		<path d="M309.346,75.652c-17.673,0-32,14.327-32,32c0,17.673,14.327,32,32,32c17.673,0,32-14.327,32-32
			C341.346,89.979,327.02,75.652,309.346,75.652z M309.346,118.319c-5.891,0-10.667-4.776-10.667-10.667s4.776-10.667,10.667-10.667
			s10.667,4.776,10.667,10.667S315.238,118.319,309.346,118.319z"/>
	</g>
</g>
<g>
	<g>
		<path d="M394.68,75.652c-17.673,0-32,14.327-32,32c0,17.673,14.327,32,32,32c17.673,0,32-14.327,32-32
			C426.68,89.979,412.353,75.652,394.68,75.652z M394.68,118.319c-5.891,0-10.667-4.776-10.667-10.667s4.776-10.667,10.667-10.667
			s10.667,4.776,10.667,10.667S400.571,118.319,394.68,118.319z"/>
	</g>
</g>
<g>
	<g>
		<path d="M416.013,171.652L416.013,171.652c0,35.346-28.654,64-64,64s-64-28.654-64-64H266.68
			c0.053,47.106,38.227,85.28,85.333,85.333c47.106-0.053,85.28-38.227,85.333-85.333H416.013z"/>
	</g>
</g>
<g>
</g>
<g>
</g>
<g>
</g>
<g>
</g>
<g>
</g>
<g>
</g>
<g>
</g>
<g>
</g>
<g>
</g>
<g>
</g>
<g>
</g>
<g>
</g>
<g>
</g>
<g>
</g>
<g>
</g>
</svg>
