<svg height="512pt" viewBox="0 0 512 512" width="512pt" xmlns="http://www.w3.org/2000/svg"><path d="m364.03125 376.542969c0-15.867188-10.589844-29.304688-25.074219-33.625 2.652344-4.9375 4.160157-10.574219 4.160157-16.558594 0-19.347656-15.742188-35.089844-35.089844-35.089844h-62.539063l5.730469-17.019531c5.941406-17.644531 4.523438-36.476562-3.996094-53.027344-8.523437-16.554687-23.023437-28.652344-40.835937-34.070312-5.097657-1.546875-10.503907 1.164062-12.316407 6.167968l-21.335937 58.972657c-5.867187 16.214843-17.441406 29.6875-32.585937 37.9375l-13.6875 7.453125c-1.445313-3.75-5.070313-6.414063-9.328126-6.414063h-107.128906c-5.523437 0-9.99999975 4.476563-9.99999975 10v200.726563c0 5.523437 4.47656275 10 9.99999975 10h107.128906c5.523438 0 10-4.476563 10-10v-.066406l4.332032 1.699218c14.160156 5.554688 29.054687 8.371094 44.265625 8.371094h126.726562c19.351563 0 35.09375-15.742188 35.09375-35.089844 0-6.140625-1.589843-11.914062-4.375-16.941406 13.867188-4.691406 23.878907-17.8125 23.878907-33.242188 0-8.210937-2.84375-15.765624-7.582032-21.75 8.808594-6.378906 14.558594-16.742187 14.558594-28.433593zm-344.027344 115.457031v-180.730469h33.523438v75.175781c0 5.523438 4.476562 10 10 10 5.523437 0 10-4.476562 10-10v-75.175781h33.605468v180.730469zm301.957032-50.183594h-52.960938c-5.519531 0-9.996094 4.480469-9.996094 10 0 5.523438 4.476563 10 9.996094 10h33.457031c8.320313 0 15.089844 6.773438 15.089844 15.09375 0 8.320313-6.769531 15.089844-15.089844 15.089844h-126.726562c-12.699219 0-25.140625-2.351562-36.964844-6.988281l-11.632813-4.5625v-160.359375l22.582032-12.296875c19.441406-10.585938 34.296875-27.882813 41.828125-48.695313l17.796875-49.183594c8.570312 4.5625 15.542968 11.613282 20.097656 20.460938 6.027344 11.703125 7.03125 25.019531 2.828125 37.492188l-10.175781 30.210937c-1.027344 3.050781-.523438 6.410156 1.355468 9.023437 1.878907 2.617188 4.902344 4.167969 8.121094 4.167969h76.460938c8.320312 0 15.089844 6.769531 15.089844 15.089844s-6.769532 15.09375-15.089844 15.09375h-39.027344c-5.519531 0-10 4.476563-10 10 0 5.519531 4.480469 10 10 10h14.738281.039063 45.164062c8.320313 0 15.089844 6.769531 15.089844 15.089844 0 8.324219-6.769531 15.09375-15.089844 15.09375h-59.941406c-5.519531 0-9.996094 4.476562-9.996094 10 0 5.519531 4.476563 10 9.996094 10h52.960938c8.320312 0 15.09375 6.769531 15.09375 15.089843 0 8.320313-6.773438 15.089844-15.09375 15.089844zm0 0"/><path d="m63.527344 416.328125c-5.523438 0-10 4.480469-10 10v.117187c0 5.519532 4.476562 10 10 10 5.523437 0 10-4.480468 10-10v-.117187c0-5.519531-4.476563-10-10-10zm0 0"/><path d="m410.738281 85.625h-3.929687c-20 0-36.273438 16.273438-36.273438 36.277344v12.046875h-1.273437c-5.523438 0-10 4.476562-10 10 0 5.519531 4.476562 10 10 10h1.273437v38.421875c0 5.523437 4.476563 10 10 10 5.523438 0 10-4.476563 10-10v-38.421875h16.578125c5.519531 0 10-4.480469 10-10 0-5.523438-4.480469-10-10-10h-16.578125v-12.046875c0-8.976563 7.300782-16.277344 16.273438-16.277344h3.929687c5.519531 0 10-4.476562 10-10 0-5.519531-4.480469-10-10-10zm0 0"/><path d="m390 22c-67.273438 0-122 54.730469-122 122s54.726562 122 122 122c67.269531 0 121.996094-54.730469 121.996094-122s-54.726563-122-121.996094-122zm0 224c-56.246094 0-102-45.757812-102-102s45.753906-102 102-102c56.242188 0 102 45.757812 102 102s-45.757812 102-102 102zm0 0"/><path d="m93.480469 186.964844c51.546875 0 93.480469-41.9375 93.480469-93.484375 0-51.542969-41.933594-93.480469-93.480469-93.480469s-93.480469 41.9375-93.480469 93.480469c0 51.546875 41.9375 93.484375 93.480469 93.484375zm0-166.964844c40.519531 0 73.480469 32.964844 73.480469 73.480469 0 40.519531-32.960938 73.480469-73.480469 73.480469s-73.480469-32.960938-73.480469-73.480469c0-40.515625 32.964844-73.480469 73.480469-73.480469zm0 0"/><path d="m71 89.890625h4.5v21.882813c0 17.507812 14.242188 31.75 31.75 31.75h3.25c5.523438 0 10-4.476563 10-10 0-5.523438-4.476562-10-10-10h-3.25c-6.480469 0-11.75-5.269532-11.75-11.75v-21.882813h6.832031c5.523438 0 10-4.476563 10-10s-4.476562-10-10-10h-6.832031v-16.449219c0-5.523437-4.476562-10-10-10s-10 4.476563-10 10v16.449219h-4.5c-5.523438 0-10 4.476563-10 10 0 5.519531 4.476562 10 10 10zm0 0"/></svg>